<svg xmlns="http://www.w3.org/2000/svg" viewBox="0 0 68.88 68.88"><title>Asset 4</title><g id="Layer_2" data-name="Layer 2"><g id="Layer_1-2" data-name="Layer 1"><path d="M66.84,10.48a7,7,0,0,0-6.62-1.83A7,7,0,1,0,46.6,5.91a28.37,28.37,0,0,1-8,15.82L21.73,38.62a28.37,28.37,0,0,1-15.82,8A7,7,0,1,0,8.66,60.22,7,7,0,1,0,22.28,63a28.29,28.29,0,0,1,8-15.82L47.14,30.26a28.29,28.29,0,0,1,15.82-8,7,7,0,0,0,3.87-11.8ZM7.77,51.92a1.93,1.93,0,0,0-1.92,1.92,1.8,1.8,0,0,1-3.61,0,5.54,5.54,0,0,1,5.53-5.53,1.8,1.8,0,1,1,0,3.61Zm6.19-1a1.8,1.8,0,1,1,0-2.55A1.8,1.8,0,0,1,14,50.93Z"/></g></g></svg>