<?xml version="1.0" encoding="utf-8"?>
<!-- Generator: Adobe Illustrator 21.0.2, SVG Export Plug-In . SVG Version: 6.00 Build 0)  -->
<svg version="1.1" id="Layer_1" xmlns="http://www.w3.org/2000/svg" xmlns:xlink="http://www.w3.org/1999/xlink" x="0px" y="0px"
	 viewBox="0 0 68.9 68.9" style="enable-background:new 0 0 68.9 68.9;" xml:space="preserve">
<style type="text/css">
	.st0{fill:#F2F2F2;}
</style>
<title>Asset 4</title>
<g id="Layer_2">
	<g id="Layer_1-2">
		<path class="st0" d="M66.8,10.5c-1.7-1.7-4.2-2.4-6.6-1.8C61.4,5,59.5,1,55.8-0.2c-3.7-1.2-7.6,0.8-8.9,4.4
			c-0.2,0.5-0.3,1.1-0.3,1.7c-0.9,6-3.7,11.5-8,15.8L21.7,38.6c-4.3,4.3-9.8,7.1-15.8,8c-3.9,0.3-6.8,3.6-6.5,7.4s3.6,6.8,7.4,6.5
			c0.6,0,1.2-0.2,1.8-0.4c-1.2,3.7,0.8,7.6,4.4,8.8c3.7,1.2,7.6-0.8,8.8-4.4c0.2-0.5,0.3-1.1,0.3-1.6c0.9-6,3.7-11.5,8-15.8
			l16.9-16.9c4.3-4.3,9.8-7.1,15.8-8c3.8-0.6,6.4-4.2,5.8-8C68.5,12.8,67.8,11.5,66.8,10.5L66.8,10.5z M7.8,51.9
			c-1.1,0-1.9,0.9-1.9,1.9c0,1-0.8,1.8-1.8,1.8s-1.8-0.8-1.8-1.8c0-3.1,2.5-5.5,5.5-5.5c1,0,1.8,0.8,1.8,1.8S8.8,51.9,7.8,51.9z
			 M14,50.9c-0.7,0.7-1.8,0.7-2.5,0c-0.7-0.7-0.7-1.8,0-2.5c0.7-0.7,1.8-0.7,2.5,0C14.7,49.1,14.7,50.2,14,50.9
			C14,50.9,14,50.9,14,50.9L14,50.9z"/>
	</g>
</g>
</svg>
