<?xml version="1.0" encoding="utf-8"?>
<!-- Generator: Adobe Illustrator 21.0.2, SVG Export Plug-In . SVG Version: 6.00 Build 0)  -->
<svg version="1.1" id="Layer_1" xmlns="http://www.w3.org/2000/svg" xmlns:xlink="http://www.w3.org/1999/xlink" x="0px" y="0px"
	 viewBox="0 0 72.9 68.9" style="enable-background:new 0 0 72.9 68.9;" xml:space="preserve">
<style type="text/css">
	.st0{fill:#F2F2F2;}
</style>
<title>Asset 3</title>
<g id="Layer_2">
	<g id="Layer_1-2">
		<path class="st0" d="M72.7,59.6c-0.4-1.5-1.6-2.7-3.2-3.2l-1.1-0.3c-6.5-1.2-23.8-3-37.7-19.5c-2.5-3-5.2-4.7-5.5-14.3V2.8
			C25.3,1.2,24,0,22.5,0H4.8C3.3,0,2.1,1.2,2.1,2.8c0,0.1,0,0.2,0,0.2l2.1,29.8c0.3,3.7-0.4,7.4-1.8,10.9l-0.5,1
			c-4.2,8.1-1.1,18,7,22.3c3.1,1.6,6.7,2.2,10.1,1.7l3.4-0.5c3.6-0.6,7.2-0.8,10.8-0.6l27.5,1.1c4.2,0.2,8.2-1.6,11-4.7l0,0
			C72.8,62.8,73.2,61.1,72.7,59.6z M8.7,38.9c0.3-1,1.5-1.6,2.5-1.3c1,0.3,1.6,1.5,1.3,2.5c-0.3,1-1.5,1.6-2.5,1.3
			C9,41.1,8.4,40,8.7,38.9L8.7,38.9z M18.4,56.2c-0.4,1-1.6,1.5-2.6,1.1c0,0,0,0,0,0c-4.5-1.9-7.4-6.4-7.4-11.3v-1c0-1.1,0.9-2,2-2
			l0,0c1.1,0,2,0.9,2,2v1c0,3.3,2,6.3,5,7.6C18.4,54,18.9,55.2,18.4,56.2C18.4,56.2,18.4,56.2,18.4,56.2L18.4,56.2z"/>
	</g>
</g>
</svg>
