<svg xmlns="http://www.w3.org/2000/svg" viewBox="0 0 72.91 68.88"><title>Asset 3</title><g id="Layer_2" data-name="Layer 2"><g id="Layer_1-2" data-name="Layer 1"><path d="M72.73,59.58a4.65,4.65,0,0,0-3.16-3.17l-1.08-.32C62,54.91,44.67,53.1,30.8,36.6c-2.53-3-5.22-4.68-5.52-14.3V2.77A2.77,2.77,0,0,0,22.51,0H4.84A2.77,2.77,0,0,0,2.07,3L4.15,32.83A23.5,23.5,0,0,1,2.32,43.7l-.45,1.05A16.5,16.5,0,0,0,19,68.68l3.36-.52a56.09,56.09,0,0,1,10.85-.62l27.47,1.11a14,14,0,0,0,11-4.69h0A4.65,4.65,0,0,0,72.73,59.58Zm-64-20.65A2,2,0,1,1,10,41.46,2,2,0,0,1,8.75,38.93Zm9.65,17.32a2,2,0,0,1-2.63,1.06A12.13,12.13,0,0,1,8.38,46V45a2,2,0,0,1,2-2h0a2,2,0,0,1,2,2v1a8.13,8.13,0,0,0,5,7.56A2,2,0,0,1,18.39,56.26Z"/></g></g></svg>