<?xml version="1.0" encoding="utf-8"?>
<!-- Generator: Adobe Illustrator 21.0.2, SVG Export Plug-In . SVG Version: 6.00 Build 0)  -->
<svg version="1.1" id="Layer_1" xmlns="http://www.w3.org/2000/svg" xmlns:xlink="http://www.w3.org/1999/xlink" x="0px" y="0px"
	 viewBox="0 0 87.3 69.8" style="enable-background:new 0 0 87.3 69.8;" xml:space="preserve">
<style type="text/css">
	.st0{fill:#F2F2F2;}
</style>
<title>Asset 16</title>
<g id="Layer_2">
	<g id="Layer_1-2">
		<path class="st0" d="M58.3,17.5c-3.3,0-5.4,3.1-6.8,7.6l-2-2.4V2.9c0-1.6-2.6-2.9-5.8-2.9s-5.8,1.3-5.8,2.9v19.8l-2,2.4
			c-1.3-4.5-3.4-7.6-6.8-7.6C17.8,17.5,0,40.7,0,58.2c0,5.6,9.1,11.6,20.4,11.6s17.2-6,17.2-11.6c0-3.1,0.9-15.5-0.3-25.8l6.5-7.5
			l6.5,7.5c-1.2,10.3-0.3,22.7-0.3,25.8c0,5.6,6,11.6,17.2,11.6s20.4-6,20.4-11.6C87.3,40.7,69.5,17.5,58.3,17.5z M13.3,41.2
			c-1.2-0.1-2.2-1.1-2.1-2.3c0.1-1.2,1.1-2.2,2.3-2.1c1.2,0.1,2.2,1.1,2.1,2.3C15.5,40.3,14.5,41.2,13.3,41.2
			C13.3,41.2,13.3,41.2,13.3,41.2L13.3,41.2z M27,26.9c-0.1,0-4.3,1.9-8.1,7.8c-0.7,1-2,1.3-3.1,0.7s-1.3-2-0.7-3
			c4.6-7.3,9.9-9.4,10.2-9.5c1.1-0.5,2.4,0.1,2.9,1.2C28.7,25.2,28.1,26.5,27,26.9z"/>
	</g>
</g>
</svg>
